<svg width="10" height="10" viewBox="0 0 10 10" fill="none" xmlns="http://www.w3.org/2000/svg">
<path d="M2.52777 9.65642C1.34507 9.65642 0.582031 8.9061 0.582031 7.73611C0.582031 6.50254 1.31963 5.77765 2.7694 5.77765H3.51972V4.37875H2.7694C1.31963 4.37875 0.582031 3.65387 0.582031 2.42029C0.582031 1.2503 1.34507 0.499985 2.52777 0.499985C3.95211 0.499985 4.40993 1.39019 4.40993 2.45844V3.51398H5.80883V2.45844C5.80883 1.39019 6.26665 0.499985 7.69099 0.499985C8.87369 0.499985 9.63673 1.2503 9.63673 2.42029C9.63673 3.65387 8.89913 4.37875 7.44936 4.37875H6.69904V5.77765H7.44936C8.89913 5.77765 9.63673 6.50254 9.63673 7.73611C9.63673 8.9061 8.87369 9.65642 7.69099 9.65642C6.26665 9.65642 5.80883 8.76621 5.80883 7.69796L5.80883 6.64243H4.40993V7.69796C4.40993 8.76621 3.95211 9.65642 2.52777 9.65642ZM6.69904 2.43301V3.51398H7.44936C8.35229 3.51398 8.7338 3.14518 8.7338 2.42029C8.7338 1.66997 8.2887 1.37748 7.69099 1.37748C7.02969 1.37748 6.69904 1.78443 6.69904 2.43301ZM2.7694 3.51398H3.51972V2.43301C3.51972 1.78443 3.18907 1.37748 2.52777 1.37748C1.93006 1.37748 1.48496 1.66997 1.48496 2.42029C1.48496 3.14518 1.86648 3.51398 2.7694 3.51398ZM4.40993 5.77765H5.80883V4.37875H4.40993V5.77765ZM2.52777 8.77893C3.18907 8.77893 3.51972 8.37198 3.51972 7.7234V6.64243H2.7694C1.86648 6.64243 1.48496 7.01123 1.48496 7.73611C1.48496 8.48643 1.93006 8.77893 2.52777 8.77893ZM6.69904 7.7234C6.69904 8.37198 7.02969 8.77893 7.69099 8.77893C8.2887 8.77893 8.7338 8.48643 8.7338 7.73611C8.7338 7.01123 8.35229 6.64243 7.44936 6.64243H6.69904L6.69904 7.7234Z" fill="#444444"/>
</svg>
