<svg width="13" height="12" viewBox="0 0 13 12" fill="none" xmlns="http://www.w3.org/2000/svg">
<path d="M4.63552 12H8.36448C9.2106 12 9.66388 11.4698 9.66388 10.6164V7.71983H12.1176C12.6132 7.71983 13 7.39655 13 6.90517C13 6.60129 12.855 6.375 12.6374 6.14224L7.2464 0.394397C7.01069 0.142241 6.76894 0 6.49698 0C6.23106 0 5.98326 0.142241 5.7536 0.394397L0.362622 6.14224C0.126918 6.38793 0 6.60129 0 6.90517C0 7.39655 0.386797 7.71983 0.876337 7.71983H3.33612V10.6164C3.33612 11.4698 3.7894 12 4.63552 12ZM4.73222 10.9978C4.50256 10.9978 4.34542 10.8297 4.34542 10.5905L4.34542 6.96336C4.34542 6.80172 4.29103 6.74353 4.14598 6.74353H1.35379C1.31148 6.74353 1.28731 6.72414 1.28731 6.69181C1.28731 6.66595 1.2994 6.64655 1.32357 6.61422L6.37006 1.24784C6.41841 1.19612 6.46072 1.18319 6.49698 1.18319C6.53928 1.18319 6.58159 1.19612 6.6239 1.24784L11.6704 6.61422C11.7006 6.64655 11.7066 6.66595 11.7066 6.69181C11.7066 6.72414 11.6885 6.74353 11.6402 6.74353H8.85402C8.70897 6.74353 8.65458 6.80172 8.65458 6.96336V10.5905C8.65458 10.8233 8.4914 10.9978 8.26778 10.9978H4.73222Z" fill="#444444"/>
</svg>
