<svg width="15" height="12" viewBox="0 0 15 12" fill="none" xmlns="http://www.w3.org/2000/svg">
<path d="M12.8265 12C14.2732 12 15 11.3286 15 9.97936V2.02064C15 0.671374 14.2732 0 12.8265 0L6.81126 0C6.00138 0 5.30226 0.195546 4.73466 0.762629L0.657591 4.75177C0.20766 5.18848 0 5.57958 0 5.99022C0 6.39435 0.200738 6.79196 0.657591 7.22868L4.74158 11.1983C5.3161 11.7588 6.00831 11.9935 6.81818 11.9935L12.8265 12ZM12.8126 10.9506H6.79742C6.27134 10.9506 5.94601 10.8332 5.57914 10.4813L1.52284 6.53775C1.28749 6.30961 1.21827 6.15318 1.21827 5.99022C1.21827 5.82075 1.29442 5.66431 1.52284 5.43618L5.57222 1.47963C5.93216 1.13417 6.27134 1.04943 6.79049 1.04943L12.8126 1.04943C13.5048 1.04943 13.8856 1.39489 13.8856 2.07279V9.92721C13.8856 10.6051 13.5048 10.9506 12.8126 10.9506ZM6.40978 8.75394C6.56207 8.75394 6.70051 8.69527 6.80434 8.59098L8.77019 6.7333L10.736 8.59098C10.8399 8.68876 10.9783 8.75394 11.1375 8.75394C11.4421 8.75394 11.6913 8.51276 11.6913 8.22596C11.6913 8.07605 11.629 7.9522 11.5251 7.85443L9.5593 6.00326L11.5321 4.13905C11.6428 4.02824 11.6982 3.91744 11.6982 3.77404C11.6982 3.48072 11.449 3.25258 11.1444 3.25258C10.9991 3.25258 10.8745 3.29821 10.7568 3.40902L8.77019 5.27322L6.79049 3.41553C6.68666 3.31124 6.56207 3.26562 6.40978 3.26562C6.10521 3.26562 5.85602 3.48723 5.85602 3.78055C5.85602 3.92395 5.9114 4.0478 6.02215 4.14557L7.988 6.00326L6.02215 7.86094C5.9114 7.9522 5.85602 8.08256 5.85602 8.22596C5.85602 8.51276 6.10521 8.75394 6.40978 8.75394Z" fill="#444444"/>
</svg>
